<?xml version="1.0" encoding="UTF-8"?>
<!-- Generator: Adobe Illustrator 27.1.1, SVG Export Plug-In . SVG Version: 6.00 Build 0)  -->
<svg xmlns="http://www.w3.org/2000/svg" xmlns:xlink="http://www.w3.org/1999/xlink" version="1.1" id="Layer_1" x="0px" y="0px" viewBox="0 0 3314.8 1312" style="enable-background:new 0 0 3314.8 1312;" xml:space="preserve">
<style type="text/css">
	.st0{fill-rule:evenodd;clip-rule:evenodd;fill:#BABDBE;}
	.st1{fill-rule:evenodd;clip-rule:evenodd;fill:#D7D7D9;}
	.st2{fill-rule:evenodd;clip-rule:evenodd;fill:#161227;}
	.st3{fill-rule:evenodd;clip-rule:evenodd;fill:#C1C1C2;}
	.st4{fill-rule:evenodd;clip-rule:evenodd;fill:#D3D3D3;}
	.st5{fill:#034B4E;}
	.st6{opacity:0.4;fill:#183031;enable-background:new    ;}
	.st7{fill:#E6E6E5;}
	.st8{fill-rule:evenodd;clip-rule:evenodd;fill:#3E3E3E;}
	.st9{fill:#161227;}
	.st10{fill:#D9D9D8;}
	.st11{fill:#C1C1C2;}
	.st12{fill:#94A8B2;}
	.st13{fill:#3E3E3E;}
	.st14{fill:#FEBF3B;}
	.st15{fill:none;stroke:#DAF0F2;stroke-width:4.0879;stroke-miterlimit:10;}
	.st16{fill:none;stroke:#DAF0F2;stroke-width:6.4145;stroke-miterlimit:10;}
	.st17{opacity:0.9;}
	.st18{fill:none;stroke:url(#SVGID_1_);stroke-width:5.365;stroke-miterlimit:10;}
	.st19{fill:#FFFFFF;}
	
		.st20{fill:none;stroke:url(#SVGID_00000097499892706687515030000006070634408200706955_);stroke-width:5.365;stroke-miterlimit:10;}
	.st21{fill-rule:evenodd;clip-rule:evenodd;fill:#FFFFFF;}
	
		.st22{fill:none;stroke:url(#SVGID_00000073720626865684081680000003922152635757067950_);stroke-width:5.365;stroke-miterlimit:10;}
	.st23{fill:none;stroke:#DAF0F2;stroke-width:2.4924;stroke-miterlimit:10;}
	.st24{fill:#192E35;}
	.st25{fill:#FBBD9D;}
	.st26{fill:#EC996F;}
	.st27{fill:#E1E1E1;}
</style>
<g>
	<g>
		<g>
			<g>
				<g>
					<g>
						<g>
							<path class="st0" d="M840.1,549.7c12.2,13,22.4,27.4,30.5,42.8l48.7-0.2l18.1,78.6l-43.9,21.2c-0.6,17.4-3.4,34.8-8.7,51.8         l34.6,34.3l-42.8,68.4l-46-16.1c-13,12.2-27.4,22.4-42.8,30.5l0.2,48.7l-78.6,18.1L688.3,884c-17.4-0.6-34.8-3.4-51.8-8.7         l-34.3,34.6l-68.4-42.7l16.1-46c-12.2-13-22.4-27.4-30.5-42.8l-48.7,0.2l-18.1-78.6l43.9-21.2c0.6-17.4,3.4-34.8,8.7-51.8         l-34.6-34.3l42.7-68.4l46,16.1c13-12.2,27.4-22.4,42.8-30.5l-0.2-48.7l78.6-18.1l21.2,43.9c17.4,0.6,34.8,3.4,51.8,8.7         l34.3-34.6l68.4,42.7L840.1,549.7L840.1,549.7z M743.9,614c-40.5-25.3-93.9-13-119.2,27.5c-25.3,40.5-13,93.9,27.5,119.2         c40.5,25.3,93.9,13,119.2-27.5C796.7,692.7,784.5,639.4,743.9,614z"></path>
						</g>
					</g>
				</g>
			</g>
		</g>
	</g>
</g>
<g>
	<g>
		<g>
			<g>
				<g>
					<g>
						<path class="st1" d="M2482.5,308.1c30.6,32.7,56.2,68.9,76.6,107.5l122.4-0.5l45.5,197.4l-110.3,53.2        c-1.4,43.7-8.6,87.5-21.8,130.2l86.9,86.2l-107.4,171.7l-115.5-40.3c-32.6,30.6-68.9,56.2-107.6,76.6l0.5,122.4l-197.3,45.5        l-53.2-110.3c-43.7-1.4-87.5-8.6-130.2-21.8l-86.2,86.9l-171.7-107.4l40.4-115.5c-30.6-32.6-56.2-68.9-76.6-107.5l-122.4,0.5        L1509,685.5l110.3-53.2c1.4-43.7,8.6-87.5,21.8-130.2l-86.8-86.2l107.4-171.7l115.5,40.4c32.6-30.6,68.9-56.2,107.6-76.6        l-0.5-122.4L2081.6,40l53.2,110.3c43.7,1.4,87.5,8.6,130.2,21.8l86.2-86.9l171.7,107.4L2482.5,308.1L2482.5,308.1z         M2241,469.7c-101.7-63.6-235.8-32.7-299.4,69c-63.6,101.7-32.7,235.8,69,299.4c101.7,63.6,235.8,32.7,299.4-69        C2373.7,667.4,2342.8,533.3,2241,469.7z"></path>
					</g>
				</g>
			</g>
		</g>
	</g>
</g>
<g>
	<g>
		<path class="st2" d="M1910.1,1004.1V387.8v-41c0-12.2-9.9-22.1-22-22.1H735.3c-12.2,0-22.1,9.9-22.1,22.1v708.6h1196.8V1004.1    L1910.1,1004.1z"></path>
		<path class="st3" d="M1109.8,1303.5l0-14.9l47.2-6l32.2-124.8l241.7-0.1l33,123.8l49.6,5.6v17.1L1109.8,1303.5L1109.8,1303.5z"></path>
		<path class="st4" d="M1183.1,1181.6l6.1-23.6l241.7-0.1l6.3,23.7L1183.1,1181.6L1183.1,1181.6z"></path>
		<path class="st5" d="M1873.6,376.1H747.9v628h1125.6V376.1z"></path>
		<path class="st6" d="M1499.7,376.1L747.9,900.5v103.6h1125.6v-628H1499.7z"></path>
		<path class="st7" d="M1312,1051.3H713.2l0.1,81c-0.1,14.9,12,31.5,26.9,31.5l571.5-0.2l571.5,0.2c14.9-0.1,26.9-16.6,26.9-31.5    l0.1-81H1312z"></path>
		<path class="st8" d="M1310.7,1076.2c16.9,0,30.6,13.7,30.6,30.6s-13.7,30.7-30.6,30.7c-16.9,0-30.6-13.7-30.6-30.7    S1293.8,1076.2,1310.7,1076.2z"></path>
	</g>
</g>
<g>
	<path class="st9" d="M231.2,723.7h739.4c14.4,0,26.2,11.7,26.2,26.2v482.3c0,14.5-11.7,26.2-26.2,26.2H231.2   c-14.4,0-26.2-11.7-26.2-26.2V749.9C205,735.5,216.7,723.7,231.2,723.7L231.2,723.7z"></path>
	<path class="st5" d="M971,752.6H230.7v477H971V752.6z"></path>
	<path class="st6" d="M725.2,757l-493,395.5v78.1h738.2V757H725.2z"></path>
	<path class="st10" d="M128.7,1304.3c-14.4-2-18.9-9.7-18.9-9.7l-17.1-24.6c-3.6-9.7,5.8-11.7,5.8-11.7h1004.6c0,0,9.4,2,5.8,11.7   l-17.1,24.6c0,0-4.5,7.7-18.9,9.7H128.7z"></path>
	<path class="st11" d="M96.2,1275.1l13.6,19.6c0,0,4.5,7.7,18.9,9.7h944.4c14.4-2,18.9-9.7,18.9-9.7l13.6-19.6H96.2z"></path>
	<path class="st12" d="M695,1258.4H506.8v23.8H695V1258.4z"></path>
	<path class="st13" d="M610.3,739.8c0,5.2-4.2,9.5-9.4,9.5c-5.2,0-9.4-4.2-9.4-9.5s4.2-9.5,9.4-9.5   C606.1,730.4,610.3,734.6,610.3,739.8z"></path>
</g>
<g>
	<g>
		<path class="st14" d="M599.7,1151.7c-12.7,0-25.5-1.4-38.1-4.2c-36.3-8-69.9-27.6-94.5-55.3c-0.8-0.8-0.7-2.1,0.2-2.9    c0.8-0.8,2.1-0.7,2.9,0.2c50.7,57,131.4,74.1,200.9,42.5c87-39.5,125.7-142.6,86.2-229.8c-0.5-1,0-2.3,1-2.7c1-0.5,2.3,0,2.7,1    c40.4,89.2,0.8,194.7-88.2,235.2C649.4,1146.3,624.7,1151.7,599.7,1151.7L599.7,1151.7z"></path>
		<path class="st14" d="M490.2,1089.3l-0.3,4.1l-20.2-1.5l0,20.3l-4.1,0l0.1-24.7L490.2,1089.3z"></path>
		<path class="st14" d="M439.8,1048.5c-0.8,0-1.5-0.4-1.9-1.2c-40.4-89.2-0.8-194.7,88.2-235.2c36.7-16.7,78.4-20.3,117.4-10.3    c38.4,9.9,72.7,32.6,96.7,64c0.7,0.9,0.5,2.2-0.4,2.9c-0.9,0.7-2.2,0.5-2.9-0.4c-49.2-64.4-135.2-86-209.1-52.4    c-87,39.5-125.7,142.6-86.2,229.8c0.5,1,0,2.3-1,2.7C440.4,1048.5,440.1,1048.5,439.8,1048.5L439.8,1048.5z"></path>
		<path class="st14" d="M716.9,866.9l0.6-4.1l20,3l1.6-20.2l4.1,0.3l-1.9,24.6L716.9,866.9z"></path>
	</g>
	<g>
		
			<image style="overflow:visible;opacity:0.75;" width="1012" height="995" transform="matrix(0.24 0 0 0.24 479.8701 845.8407)">
		</image>
		<g>
			<g>
				
					<circle id="icon-passkey-head_00000107583587348399962840000004690772058556264883_" class="st15" cx="578.4" cy="914.1" r="45.6"></circle>
				<path id="icon-passkey-key_00000030457631592035798580000006779553962902384055_" class="st15" d="M700,959.7      c0.1-19.6-15.8-35.5-35.3-35.6c-19.6-0.1-35.5,15.8-35.6,35.3c0,13.7,7.8,26.3,20.3,32.2v54.2l15.2,15.2l25.3-25.3l-15.2-15.2      l15.2-15.2l-12.6-12.6C691,987.5,700,974.4,700,959.7z M664.6,959.7c-5.6,0-10.1-4.5-10.1-10.1s4.5-10.1,10.1-10.1      c5.6,0,10.1,4.5,10.1,10.1S670.2,959.7,664.6,959.7z"></path>
				<path id="icon-passkey-body_00000108290436671918932560000007521392142214841274_" class="st15" d="M618.4,980.2      c-7.8-3.5-16.2-5.3-24.7-5.3h-30.4c-33.6,0-60.8,27.2-60.8,60.8v20.3h131.7v-55.8C627.3,994.9,621.9,988,618.4,980.2z"></path>
			</g>
		</g>
	</g>
</g>
<g>
	<g>
		<path class="st14" d="M1312.9,954.7c-19.9,0-40-2.2-59.8-6.5c-57-12.5-109.7-43.4-148.3-86.8c-1.2-1.3-1.1-3.4,0.3-4.6    c1.3-1.2,3.4-1.1,4.6,0.3c79.6,89.5,206.2,116.3,315.3,66.7c136.5-62,197.2-223.8,135.3-360.5c-0.7-1.6,0-3.5,1.6-4.3    c1.6-0.7,3.5,0,4.3,1.6c63.4,140,1.3,305.6-138.5,369.1C1391,946.3,1352.1,954.7,1312.9,954.7L1312.9,954.7z"></path>
		<path class="st14" d="M1141.2,856.8l-0.5,6.4l-31.7-2.4l-0.1,31.8l-6.5,0l0.1-38.8L1141.2,856.8z"></path>
		<path class="st14" d="M1062.1,792.9c-1.2,0-2.4-0.7-2.9-1.9c-63.4-140-1.3-305.6,138.5-369.1c57.6-26.2,123-31.9,184.2-16.1    c60.2,15.5,114.1,51.2,151.7,100.4c1.1,1.4,0.8,3.4-0.6,4.5c-1.4,1.1-3.4,0.8-4.5-0.6c-77.3-101.1-212.2-135-328.1-82.3    c-136.5,62-197.2,223.8-135.3,360.5c0.7,1.6,0,3.5-1.6,4.3C1062.9,792.8,1062.5,792.9,1062.1,792.9L1062.1,792.9z"></path>
		<path class="st14" d="M1496.8,507.9l1-6.4l31.4,4.8l2.5-31.7l6.4,0.5l-3,38.6L1496.8,507.9z"></path>
	</g>
	<g>
		
			<image style="overflow:visible;opacity:0.75;" width="1588" height="1560" transform="matrix(0.24 0 0 0.24 1124.8175 474.9281)">
		</image>
		<g>
			<g>
				
					<circle id="icon-passkey-head_00000000220655712414309990000014664957187778987929_" class="st16" cx="1279.5" cy="582" r="71.6"></circle>
				<path id="icon-passkey-key_00000150806473781675892180000017967160927282931606_" class="st16" d="M1470.4,653.5      c0.1-30.7-24.7-55.7-55.5-55.8c-30.7-0.1-55.7,24.7-55.8,55.5c-0.1,21.6,12.3,41.2,31.8,50.5v85.1l23.9,23.9l39.8-39.8      l-23.9-23.9l23.9-23.9l-19.7-19.7C1456.2,697.1,1470.3,676.5,1470.4,653.5z M1414.7,653.5c-8.8,0-15.9-7.1-15.9-15.9      c0-8.8,7.1-15.9,15.9-15.9s15.9,7.1,15.9,15.9C1430.6,646.4,1423.5,653.5,1414.7,653.5z"></path>
				<path id="icon-passkey-body_00000120524656851002513970000013292586154117328025_" class="st16" d="M1342.2,685.6      c-12.2-5.4-25.4-8.3-38.8-8.3h-47.7c-52.7,0-95.4,42.7-95.4,95.4v31.8H1367V717C1356.3,708.7,1347.8,698,1342.2,685.6z"></path>
			</g>
		</g>
	</g>
</g>
<g>
	<g class="st17">
		
			<image style="overflow:visible;opacity:0.75;" width="343" height="343" transform="matrix(1 0 0 1 1952.2786 451.0292)">
		</image>
		<g>
			<circle cx="2123.6" cy="622.4" r="122.6"></circle>
			<linearGradient id="SVGID_1_" gradientUnits="userSpaceOnUse" x1="1998.3361" y1="622.3601" x2="2248.9512" y2="622.3601">
				<stop offset="3.535350e-02" style="stop-color:#148CBD"></stop>
				<stop offset="0.2669" style="stop-color:#2E96C3"></stop>
				<stop offset="0.7132" style="stop-color:#58B4D4"></stop>
				<stop offset="1" style="stop-color:#71CDE1"></stop>
			</linearGradient>
			<circle class="st18" cx="2123.6" cy="622.4" r="122.6"></circle>
		</g>
	</g>
</g>
<g>
	
		<image style="overflow:visible;opacity:0.75;" width="619" height="747" transform="matrix(0.24 0 0 0.24 2049.5527 532.9033)">
	</image>
	<g>
		<g>
			<path class="st19" d="M2175.5,584.5c-4-10.2-10.6-18.5-19.6-24.6c-9.4-6.4-21-9.2-32.5-7.8c-14.9,1.7-27.3,9-37,21.7     c-3.6,4.8-6.2,10.6-8.2,18.3c-1.8,6.8-4.9,13.5-9.3,20.1c-0.7,1-0.4,2.3,0.6,3c1,0.7,2.3,0.4,2.9-0.6c4.7-6.9,8.1-14.1,9.9-21.4     c1.9-7.1,4.2-12.5,7.5-16.8c9-11.8,20.4-18.5,34.1-20.1c10.6-1.2,21.1,1.3,29.7,7.1c8.4,5.7,14.3,13.1,18,22.7     c3.5,9,4.2,19.3,2.1,29.9c-1.5,7.6-1.6,14.3-0.4,20c0.2,1,1.1,1.7,2.1,1.7c0.1,0,0.3,0,0.5-0.1c1.1-0.3,1.9-1.4,1.6-2.5     c-1.1-5.1-1-11.3,0.4-18.3C2180.1,605.4,2179.3,594.3,2175.5,584.5z"></path>
			<path class="st19" d="M2167,612.8c2.3-13.4-0.9-25.1-9.7-34.7c-8-8.8-19.9-13.6-32-13c-16,0.8-27.1,9.1-33.8,25.3     c0,0.1-0.1,0.2-0.1,0.4c-3.6,16.5-10.7,28.6-22.3,38.1c-0.9,0.7-1,2.1-0.3,3c0.7,0.9,2.1,1,3,0.3c12.4-10.1,19.9-22.9,23.7-40.3     c6.1-14.4,15.9-21.8,30-22.5c10.8-0.6,21.5,3.8,28.6,11.7c7.9,8.7,10.7,18.8,8.6,31c-5.2,18.5-2.7,30.4,0,40.1     c0.3,0.9,1.1,1.6,2,1.6c0.2,0,0.4,0,0.6-0.1c1.1-0.3,1.8-1.5,1.5-2.6c-2.7-9.6-4.9-20.4,0-37.9C2167,613,2167,612.9,2167,612.8z"></path>
			<path class="st19" d="M2153.9,648.3c-2.7-13.6-2.7-25.3-0.1-35.7c2-8,0.7-16.2-3.6-22.4l-0.4-0.6c-7.1-9.7-19.6-13.7-30.6-9.8     c-9.5,3.4-16.3,11.7-20.3,24.8c-3.3,15-12.1,27.9-26.3,38.4c-0.9,0.7-1.1,2-0.4,3c0.7,0.9,2,1.1,3,0.4     c15-11.1,24.4-24.9,27.8-40.7c3.6-11.7,9.4-18.9,17.7-21.8c9.2-3.3,19.8,0.1,25.7,8.3l0.4,0.6c3.6,5.2,4.7,12.1,2.9,19     c-2.8,11.1-2.7,23.4,0.1,37.8c0,0.1,0.1,0.3,0.1,0.4l6.4,16c0.3,0.8,1.1,1.3,2,1.3c0.3,0,0.5,0,0.8-0.2c1.1-0.4,1.6-1.7,1.2-2.8     L2153.9,648.3z"></path>
			<path class="st19" d="M2143,608.7c1.2-4.2,0.5-8.7-1.9-12.4c-2.5-3.7-6.4-6.2-10.8-6.7c-7.4-0.9-14.4,3.8-16.4,11     c-5.1,18.7-18,41.7-35.4,51.2c-1,0.6-1.4,1.8-0.9,2.9c0.6,1,1.8,1.4,2.9,0.9c18.5-10,32.1-34.2,37.4-53.8     c1.4-5.1,6.5-8.5,11.8-7.9c3.2,0.4,6,2.1,7.8,4.8c1.7,2.6,2.2,5.9,1.4,8.9c-9.1,31.4-26.4,55.8-46.3,65.4c-1.1,0.5-1.5,1.8-1,2.8     c0.4,0.8,1.1,1.2,1.9,1.2c0.3,0,0.6-0.1,0.9-0.2C2115.4,666.6,2133.6,641.2,2143,608.7z"></path>
			<path class="st19" d="M2127.7,607.9c0.2-1.2-0.5-2.3-1.7-2.5c-1.2-0.2-2.3,0.5-2.5,1.7c-5.3,27.5-18.7,46.3-41.1,57.6     c-1,0.5-1.5,1.8-0.9,2.8c0.4,0.7,1.1,1.2,1.9,1.2c0.3,0,0.7-0.1,1-0.2C2107.6,656.8,2122.2,636.4,2127.7,607.9z"></path>
			<path class="st19" d="M2141.1,646.6c-0.1-1-0.9-1.8-1.9-1.9c-1-0.1-1.9,0.5-2.2,1.5c-4.5,14.4-15.5,26.3-33.5,36.4     c-1,0.6-1.4,1.9-0.8,2.9c0.4,0.7,1.1,1.1,1.9,1.1c0.4,0,0.7-0.1,1-0.3c15.9-8.8,26.6-19.2,32.6-31.4c1.6,8.3,4.7,16.4,11.2,21.6     c0.9,0.7,2.3,0.6,3-0.3c0.7-0.9,0.6-2.3-0.3-3C2144.5,667.2,2142.3,656.4,2141.1,646.6z"></path>
			<path class="st19" d="M2144.6,684.1c-6-1.2-7.2-4.3-8.6-8c-0.3-0.9-1.2-1.5-2.2-1.4c-0.9,0.1-1.7,0.8-1.9,1.7     c-1,5-5.1,8.9-13.4,12.8c-1.1,0.5-1.5,1.8-1,2.8c0.4,0.8,1.1,1.2,1.9,1.2c0.3,0,0.6-0.1,0.9-0.2c5-2.3,10.8-5.6,13.8-10.8     c1.7,2.6,4.4,5,9.6,6c1.1,0.2,2.3-0.5,2.5-1.7C2146.6,685.4,2145.8,684.3,2144.6,684.1z"></path>
		</g>
	</g>
</g>
<g>
	<g class="st17">
		
			<image style="overflow:visible;opacity:0.75;" width="343" height="344" transform="matrix(1 0 0 1 1952.2786 109.0292)">
		</image>
		<g>
			<circle cx="2123.8" cy="281" r="122.6"></circle>
			
				<linearGradient id="SVGID_00000116195003948086058960000017290406345929420177_" gradientUnits="userSpaceOnUse" x1="1998.4747" y1="281.0256" x2="2249.0896" y2="281.0256">
				<stop offset="3.535350e-02" style="stop-color:#148CBD"></stop>
				<stop offset="0.2669" style="stop-color:#2E96C3"></stop>
				<stop offset="0.7132" style="stop-color:#58B4D4"></stop>
				<stop offset="1" style="stop-color:#71CDE1"></stop>
			</linearGradient>
			
				<circle style="fill:none;stroke:url(#SVGID_00000116195003948086058960000017290406345929420177_);stroke-width:5.365;stroke-miterlimit:10;" cx="2123.8" cy="281" r="122.6"></circle>
		</g>
	</g>
</g>
<g>
	
		<image style="overflow:visible;opacity:0.75;" width="649" height="650" transform="matrix(0.24 0 0 0.24 2045.9429 202.6534)">
	</image>
	<g>
		<g>
			<path class="st21" d="M2160.4,287.6c-1.2,0-2.1-1-2.1-2.1c0-1.2,1-2.1,2.1-2.1c1.2,0,2.1,1,2.1,2.1     C2162.5,286.6,2161.6,287.6,2160.4,287.6z M2150.4,313.1c-3.5,5.8-7.7,10.9-12.3,14.6c-4.6,3.6-9.5,5.7-14.6,5.8     c-0.1,0-0.1,0-0.1,0c-5.1,0-10-2.1-14.5-5.7c-6.8-5.4-12.8-14.3-16.9-23.6c-1.7-3.8-3.1-7.6-4.1-11.4c0.6-0.1,1.3-0.3,1.8-0.5     L2117,320c-0.5,1-0.8,2.2-0.8,3.4c0,4.1,3.3,7.4,7.4,7.4c4.1,0,7.4-3.3,7.4-7.4c0-1.2-0.3-2.4-0.8-3.4l27.3-27.8     c0.6,0.2,1.2,0.4,1.8,0.5C2157.3,299.5,2154.3,306.7,2150.4,313.1L2150.4,313.1z M2084.6,285.5c0-1.2,1-2.1,2.1-2.1     c1.2,0,2.1,1,2.1,2.1c0,1.2-1,2.1-2.1,2.1C2085.6,287.6,2084.6,286.6,2084.6,285.5z M2145.7,248.9c0-1.2,1-2.1,2.1-2.1     c1.2,0,2.1,1,2.1,2.1c0,1.2-1,2.1-2.1,2.1C2146.7,251,2145.7,250,2145.7,248.9z M2153.3,283.5h-22.7c-0.2-0.8-0.6-1.6-1.1-2.3     l12.8-19.6l3.7-5.6c0.6,0.2,1.2,0.3,1.9,0.3c0,0,0.1,0,0.1,0l7.8,23.4C2154.6,280.6,2153.7,282,2153.3,283.5L2153.3,283.5z      M2126,292.4c1.9-0.7,3.5-2.2,4.3-4.1h23.3c0.1,0.3,0.2,0.5,0.4,0.8l-27.3,27.7c-0.2-0.1-0.5-0.2-0.7-0.3L2126,292.4z      M2093.6,288.3h23c0.8,2,2.5,3.5,4.6,4.2v23.9c-0.2,0.1-0.5,0.2-0.7,0.3l-27.3-27.7C2093.4,288.8,2093.5,288.6,2093.6,288.3     L2093.6,288.3z M2097.2,248.9c0-1.2,1-2.1,2.1-2.1c1.2,0,2.1,1,2.1,2.1c0,1.2-1,2.1-2.1,2.1C2098.1,251,2097.2,250,2097.2,248.9z      M2099.2,256.2c0,0,0.1,0,0.1,0c0.7,0,1.3-0.1,1.9-0.3l16.3,25c-0.6,0.7-1,1.6-1.2,2.5h-22.4c-0.4-1.5-1.3-2.9-2.5-3.8     L2099.2,256.2z M2125.6,278.4c-0.7-0.2-1.4-0.3-2.2-0.3c-0.7,0-1.3,0.1-1.9,0.3l-16.3-25c0.5-0.7,1-1.5,1.2-2.4h34.3     c0.3,0.9,0.7,1.7,1.2,2.4L2125.6,278.4z M2121.3,285.5c0-1.2,1-2.1,2.1-2.1c1.2,0,2.1,1,2.1,2.1c0,1.2-1,2.1-2.1,2.1     C2122.3,287.6,2121.3,286.6,2121.3,285.5z M2123.6,321.3c1.2,0,2.1,1,2.1,2.1c0,1.2-1,2.1-2.1,2.1c-1.2,0-2.1-1-2.1-2.1     C2121.4,322.3,2122.4,321.3,2123.6,321.3z M2085.6,275.6c1.3-13.6,2.2-25.4,6.7-33.4c2.2-4,5.2-7.2,9.7-9.5     c4.5-2.3,10.5-3.8,18.8-4c0.6,0,1.8,0,3,0c1.1,0,2.2,0,2.8,0c8.2,0.2,14.2,1.7,18.7,4c6.7,3.5,10.1,8.9,12.4,16.2     c2.2,7.3,3,16.6,4,26.7c0.1,0.8,0.1,1.6,0.1,2.5v0c-0.4-0.1-0.8-0.1-1.3-0.1c0,0-0.1,0-0.1,0l-7.8-23.5c1.7-1.4,2.8-3.4,2.8-5.8     c0-4.1-3.3-7.4-7.4-7.4c-3.1,0-5.8,1.9-6.9,4.7h-34.8c-1.1-2.7-3.7-4.7-6.9-4.7c-4.1,0-7.4,3.3-7.4,7.4c0,2.3,1.1,4.4,2.8,5.8     l-7.8,23.5c0,0-0.1,0-0.1,0c-0.4,0-0.9,0-1.3,0.1c0,0,0,0,0,0C2085.5,277.3,2085.5,276.4,2085.6,275.6L2085.6,275.6z      M2166.3,281.1c0.1-1,0.1-2,0.1-2.9c0-1,0-2-0.1-2.9c-1.3-13.5-2.1-25.8-7.3-35.3c-2.6-4.7-6.3-8.7-11.7-11.5     c-5.3-2.8-12.1-4.3-20.8-4.5c-0.7,0-1.8,0-2.9,0c-1.2,0-2.4,0-3.1,0c-8.7,0.2-15.5,1.8-20.8,4.5c-8,4.1-12.4,11-14.8,19.1     c-2.4,8.1-3.2,17.5-4.1,27.7c-0.1,1-0.1,1.9-0.1,3c0,0.9,0.1,1.9,0.1,2.9c-0.9,1.2-1.4,2.7-1.4,4.4c0,2.5,1.2,4.7,3.2,6.1     c2,7.9,5.4,16.5,10,24.1c3.7,6.2,8.2,11.7,13.3,15.8c5.1,4.1,11.1,6.7,17.5,6.7c0,0,0,0,0,0l0,0h0.1c6.4,0,12.4-2.7,17.6-6.8     c7.8-6.2,14-15.6,18.4-25.4c2.2-4.8,3.9-9.8,5.1-14.5c2-1.3,3.2-3.6,3.2-6.1C2167.8,283.8,2167.2,282.3,2166.3,281.1     L2166.3,281.1z M2178.4,309.3v26.2h-26.2v4.8l31,0v-31L2178.4,309.3z M2178.4,252v-26.2h-26.2V221h31v31H2178.4z M2064.3,340.3     v-31h4.8v26.2h26.2v4.8H2064.3z M2064.3,221l31,0v4.8h-26.2V252h0h-4.8V221z"></path>
		</g>
	</g>
</g>
<g>
	<g class="st17">
		
			<image style="overflow:visible;opacity:0.75;" width="343" height="343" transform="matrix(1 0 0 1 1952.2786 806.0292)">
		</image>
		<g>
			<circle cx="2123.6" cy="977.3" r="122.6"></circle>
			
				<linearGradient id="SVGID_00000157284255837949270800000002213668491467341970_" gradientUnits="userSpaceOnUse" x1="1998.2874" y1="977.2677" x2="2248.9023" y2="977.2677">
				<stop offset="3.535350e-02" style="stop-color:#148CBD"></stop>
				<stop offset="0.2669" style="stop-color:#2E96C3"></stop>
				<stop offset="0.7132" style="stop-color:#58B4D4"></stop>
				<stop offset="1" style="stop-color:#71CDE1"></stop>
			</linearGradient>
			
				<circle style="fill:none;stroke:url(#SVGID_00000157284255837949270800000002213668491467341970_);stroke-width:5.365;stroke-miterlimit:10;" cx="2123.6" cy="977.3" r="122.6"></circle>
		</g>
	</g>
</g>
<g>
	
		<image style="overflow:visible;opacity:0.75;" width="530" height="709" transform="matrix(0.24 0 0 0.24 2060.1956 892.2662)">
	</image>
	<g>
		<g>
			<path class="st19" d="M2146.4,1042.6c18.7-7,28.1-27.9,21-46.5l-21.4-56.8c-1.4-3.8-5.5-5.6-9.3-4.2l-4.1,1.5l-8.7-23     c-1.1-3-4.5-4.5-7.4-3.4l-35.1,13.3c-3,1.1-4.5,4.5-3.4,7.4l8.7,23l-4.1,1.5c-3.8,1.4-5.6,5.5-4.2,9.3l21.4,56.8     C2106.9,1040.2,2127.8,1049.6,2146.4,1042.6z M2083.5,928.9l35.1-13.3l8.7,23l-35.1,13.3L2083.5,928.9z M2083.9,962.7     c-0.3-0.8,0-1.6,0.8-1.9l54.1-20.4c0.8-0.3,1.6,0,1.9,0.8l21.4,56.8c5.9,15.7-2,33.2-17.7,39.1c-15.7,5.9-33.2-2-39.1-17.7     L2083.9,962.7z"></path>
			<path class="st19" d="M2093.8,935l20.9-7.9l2,5.4l-20.9,7.9L2093.8,935z"></path>
			<path class="st19" d="M2130.3,1020.1l13.5-5.1l2,5.4l-13.5,5.1L2130.3,1020.1z"></path>
		</g>
	</g>
</g>
<g>
	<path class="st9" d="M1823,779.6h-259.6c-13.1,0-23.8,10.7-23.8,23.8v477.1c0,13.1,10.6,23.8,23.8,23.8H1823   c13.1,0,23.8-10.7,23.8-23.8V803.4C1846.8,790.3,1836.2,779.6,1823,779.6z"></path>
	<path class="st5" d="M1561.1,806.7c-3.9,0-7,3.2-7,7v470h271.3c3.9,0,7-3.2,7-7V813.8c0-3.9-3.1-7-7-7H1561.1L1561.1,806.7z"></path>
	<path class="st6" d="M1751.5,803.4l-200.9,165.9l3.8,316.7h278V803.4H1751.5z"></path>
</g>
<g>
	<g>
		<path class="st14" d="M1693.4,1128.6c-7.7,0-15.5-0.8-23.2-2.5c-22.2-4.9-42.6-16.9-57.6-33.7c-0.5-0.5-0.4-1.3,0.1-1.8    c0.5-0.5,1.3-0.4,1.8,0.1c30.9,34.8,80.1,45.2,122.5,25.9c53-24.1,76.6-86.9,52.6-140.1c-0.3-0.6,0-1.4,0.6-1.7    c0.6-0.3,1.4,0,1.7,0.6c24.6,54.4,0.5,118.7-53.8,143.4C1723.7,1125.4,1708.6,1128.6,1693.4,1128.6L1693.4,1128.6z"></path>
		<path class="st14" d="M1626.6,1090.6l-0.2,2.5l-12.3-0.9l0,12.4l-2.5,0l0-15.1L1626.6,1090.6z"></path>
		<path class="st14" d="M1595.9,1065.8c-0.5,0-0.9-0.3-1.1-0.7c-24.6-54.4-0.5-118.7,53.8-143.4c22.4-10.2,47.8-12.4,71.6-6.3    c23.4,6,44.3,19.9,58.9,39c0.4,0.6,0.3,1.3-0.2,1.8c-0.5,0.4-1.3,0.3-1.8-0.2c-30-39.3-82.4-52.4-127.5-32    c-53,24.1-76.6,86.9-52.6,140.1c0.3,0.6,0,1.4-0.6,1.7C1596.2,1065.7,1596.1,1065.8,1595.9,1065.8L1595.9,1065.8z"></path>
		<path class="st14" d="M1764.8,955l0.4-2.5l12.2,1.9l1-12.3l2.5,0.2l-1.2,15L1764.8,955z"></path>
	</g>
	<g>
		
			<image style="overflow:visible;opacity:0.75;" width="618" height="607" transform="matrix(0.24 0 0 0.24 1620.168 942.1385)">
		</image>
		<g>
			<g>
				
					<circle id="icon-passkey-head_00000130609753275127663580000003615267662673967254_" class="st23" cx="1680.4" cy="983.8" r="27.8"></circle>
				<path id="icon-passkey-key_00000108284641733052292370000015466502693690460563_" class="st23" d="M1754.5,1011.6      c0-11.9-9.6-21.7-21.5-21.7s-21.7,9.6-21.7,21.5c0,8.4,4.8,16,12.4,19.6v33.1l9.3,9.3l15.4-15.4l-9.3-9.3l9.3-9.3l-7.7-7.7      C1749,1028.5,1754.5,1020.5,1754.5,1011.6z M1732.9,1011.6c-3.4,0-6.2-2.8-6.2-6.2s2.8-6.2,6.2-6.2s6.2,2.8,6.2,6.2      S1736.3,1011.6,1732.9,1011.6z"></path>
				<path id="icon-passkey-body_00000013889099831379378440000014474981407995356571_" class="st23" d="M1704.8,1024.1      c-4.7-2.1-9.9-3.2-15.1-3.2h-18.5c-20.5,0-37.1,16.6-37.1,37.1v12.4h80.3v-34C1710.2,1033.1,1706.9,1028.9,1704.8,1024.1z"></path>
			</g>
		</g>
	</g>
</g>
<g>
	<g>
		<g>
			<path class="st24" d="M3136.5,897.8c11.5,0.6,20.1-12.7,17.8-24c-2.2-11.3-12.1-19.6-22.7-24c-10.6-4.4-22.2-5.7-33.3-8.6     c-33.1-8.5-62.2-31.2-78.5-61.2c-5.3-9.9-10.1-22.1-14.5-35.7c-15.6-65.9-37.3-160-42.6-196.6c-13.7-94.7-37.8-198.7-173.2-189     c0,0-90,16.9-124.5,81.5c-30.4,56.7-12.8,227.9-16.9,351.1l29.5,17.8l4.6,0.3c3.7,12.8,8.8,24.7,16.3,35.3     c27,38.4,63.6,69.3,103.4,94.3c80.3,50.4,176.5,77.9,270.9,68.5c19.9-2,40.1-5.8,57.6-15.6c17.4-9.9,31.8-26.8,34.5-46.6     C3167.5,925.2,3155.8,903.2,3136.5,897.8z"></path>
		</g>
		<g>
			<path class="st25" d="M2771.6,393.9l8.5-8.1l91.5,36.9c13.2,0.7,23.7,11.5,24.1,24.7l-0.8,298.1c0.1,20.2-3.9,37.7-16.1,53.8     l-12.9,17c-29.3,38.7-89.6,35.5-112.8-7.1c-1.6-3-2.7-5.6-3.2-7.7c-0.5-2.7-1.2-4.4-1.4-6.7c-2.7-24-2.9-44.8-2.9-44.8     c-1.6-26.3-2.2-37.1-2.2-36.9c0,0-56-6.4-71.2-78.4c-7.5-35.8-6.1-85-4-133.4C2671.2,434.3,2717.7,393.8,2771.6,393.9z"></path>
		</g>
		<g>
			<path class="st24" d="M2776.1,550.4c0.1,4.9,4.3,8.9,9.4,8.9c5.1,0,9.2-3.9,9.2-8.9c-0.1-4.9-4.3-8.9-9.4-8.9     C2780.2,541.5,2776.1,545.5,2776.1,550.4z"></path>
		</g>
		<g>
			<path class="st24" d="M2686.8,550.4c0.1,4.9,4.3,8.9,9.4,8.9c5.1,0,9.2-3.9,9.2-8.9c-0.1-4.9-4.3-8.9-9.4-8.9     C2690.9,541.5,2686.7,545.5,2686.8,550.4z"></path>
		</g>
		<g>
			<path class="st24" d="M2677.8,520.5c1.2,1.2,8-4.4,18-4.9c10-0.6,17.6,4.2,18.6,2.9c0.5-0.6-0.8-2.7-4.1-4.9     c-3.3-2.2-8.7-4.1-15-3.8c-6.2,0.3-11.4,2.9-14.3,5.4C2678.2,517.7,2677.2,520,2677.8,520.5z"></path>
		</g>
		<g>
			<path class="st24" d="M2779.4,521.5c1.3,1,7.5-5.2,17.4-6.7c9.9-1.6,17.9,2.3,18.8,1c0.4-0.6-1-2.6-4.6-4.4     c-3.5-1.8-9.1-3.2-15.3-2.3c-6.2,1-11,4.1-13.6,6.8C2779.5,518.8,2778.7,521.1,2779.4,521.5z"></path>
		</g>
		<g>
			<path class="st24" d="M2744.4,594.4c0-0.6-6.3-1.3-16.4-2.1c-2.6-0.1-5-0.5-5.5-2.2c-0.7-1.8,0.2-4.6,1.3-7.7     c2.1-6.3,4.3-12.9,6.6-19.8c9.1-28.2,15.6-51.4,14.4-51.7c-1.1-0.4-9.4,22.2-18.6,50.5c-2.2,7-4.3,13.6-6.3,19.9     c-0.8,3-2.3,6.3-0.8,10.1c0.8,1.9,2.7,3.2,4.4,3.5c1.7,0.4,3.1,0.4,4.4,0.4C2738.1,595.2,2744.4,595,2744.4,594.4z"></path>
		</g>
		<g>
			<path class="st26" d="M2743.5,713.2c0,0,48.9,0.7,95.8-30.8c0,0-21.9,51.4-94.8,48.3L2743.5,713.2z"></path>
		</g>
		<g>
			<path class="st26" d="M2749.9,618.3c3.4-4.9,9.5-7.9,15.8-7.5c4.4,0.3,8.9,2.1,11.7,5.5c2.8,3.4,3.6,8.4,1.4,11.9     c-2.5,3.9-8.1,5.1-13,4c-4.8-1.1-9.1-4.1-13.2-7c-1.1-0.8-2.3-1.7-3-2.8c-0.7-1.2-1-2.7-0.2-3.7"></path>
		</g>
		<g>
			<path class="st24" d="M2774.2,599.8c-1.6,0-1.1,10.8-10,19c-8.9,8.2-20.5,7.6-20.5,9.1c-0.1,0.7,2.7,2,7.6,1.9     c4.8-0.1,11.7-2,17.2-7c5.4-5,7.6-11.4,7.7-15.9C2776.3,602.4,2775,599.7,2774.2,599.8z"></path>
		</g>
		<g>
			<path class="st24" d="M2769.8,482.5c1.4,2.5,11.1-0.2,22.9-0.6c11.8-0.6,21.7,1.3,22.9-1.3c0.5-1.3-1.5-3.5-5.7-5.6     c-4.2-2-10.5-3.6-17.6-3.3c-7.1,0.3-13.3,2.4-17.3,4.8C2771,478.9,2769.2,481.3,2769.8,482.5z"></path>
		</g>
		<g>
			<path class="st24" d="M2679.3,477.5c1.9,2.2,8.6-0.5,16.9-1c8.3-0.8,15.4,0.8,16.9-1.7c0.7-1.2-0.6-3.4-3.7-5.4     c-3.1-2-8.3-3.5-14-3c-5.7,0.5-10.5,2.8-13.3,5.2C2679.3,474.1,2678.4,476.4,2679.3,477.5z"></path>
		</g>
		<g>
			<path class="st24" d="M2893.8,574.6c0,0-51.3,16-80.3-110.5c-9.9-43.3-50-78.3-50-78.3l16.3-4.9c0,0,101.1,28.5,102.8,29.7     c1.7,1.3,25.5,52.3,25.5,52.3L2893.8,574.6z"></path>
		</g>
		<g>
			<path class="st25" d="M2881.2,569.9c-0.3-5.4,5.3-18.4,10.6-19.5c14.1-2.9,39.9-3.1,41.9,33.1c2.8,49.4-47.4,42-47.6,40.6     C2886.1,623,2882.1,588.6,2881.2,569.9z"></path>
		</g>
		<g>
			<path class="st26" d="M2900.2,604.5c0.2-0.2,0.9,0.6,2.4,1.1c1.5,0.6,3.9,0.9,6.4-0.2c5.1-2.2,9-10.8,8.8-19.7     c-0.1-4.5-1.3-8.7-3.1-12.2c-1.7-3.5-4.2-5.9-6.9-6.2c-2.6-0.5-4.4,1.2-4.9,2.6c-0.6,1.4-0.2,2.4-0.5,2.5     c-0.1,0.1-1.1-0.8-0.8-2.8c0.1-1,0.7-2.2,1.8-3.2c1.1-1,2.8-1.6,4.7-1.5c3.8,0,7.5,3.4,9.4,7.2c2.2,3.8,3.6,8.5,3.8,13.6     c0.2,10-4.3,19.6-11.3,22.1c-3.4,1.1-6.4,0.2-7.9-0.9C2900.4,605.7,2900.1,604.6,2900.2,604.5z"></path>
		</g>
		<g>
			<path class="st14" d="M2935.6,756.7c0,0-1-6.1-1.1-17.3c-0.1-11.2,1.3-27.3,4.8-46.9c1.8-9.8,3.7-20.5,5.8-32.1     c2-11.5,3.8-23.9,4.4-37c0.6-13.1,0.2-27-3-40.9c-1.6-6.9-3.9-13.9-7-20.5c-3.1-6.7-7.1-13-11.7-19c-9.3-12-20.4-21.9-31.1-31.3     c-10.8-9.4-21.2-18.6-30.4-28c-18.6-18.8-33.2-37.6-44.4-54.1c-11.2-16.5-19-30.7-24.1-40.6c-2.5-5-4.4-8.9-5.6-11.5     c-0.6-1.3-1-2.3-1.4-3c-0.3-0.7-0.4-1-0.4-1.1c0,0,0.2,0.3,0.6,1c0.4,0.7,0.9,1.7,1.5,3c1.3,2.6,3.2,6.5,5.8,11.4     c5.2,9.8,13.1,23.9,24.4,40.3c11.3,16.4,26,35.1,44.5,53.7c9.2,9.4,19.6,18.5,30.4,27.9c10.8,9.4,21.9,19.4,31.3,31.5     c4.7,6,8.8,12.5,11.8,19.3c3.1,6.8,5.4,13.8,7,20.8c3.2,14.1,3.6,28.1,2.9,41.3c-0.7,13.2-2.5,25.6-4.6,37.2     c-2.1,11.5-4.1,22.2-5.9,32c-3.6,19.6-5.2,35.7-5.2,46.8c-0.1,5.6,0.1,9.9,0.3,12.8c0.1,1.4,0.2,2.5,0.2,3.3     C2935.6,756.3,2935.6,756.7,2935.6,756.7z"></path>
		</g>
		<g>
			<path class="st14" d="M2951.5,761.4c0,0-1-6.1-1.1-17.3c-0.1-11.2,1.3-27.3,4.8-46.9c1.8-9.8,3.7-20.5,5.8-32.1     c2-11.5,3.8-23.9,4.4-37c0.6-13.1,0.2-27-3-40.9c-1.6-6.9-3.9-13.9-7-20.5c-3.1-6.7-7.1-13-11.7-19c-9.3-12-20.4-21.9-31.1-31.3     c-10.8-9.4-21.2-18.6-30.4-28c-18.6-18.8-33.2-37.6-44.4-54.1c-11.2-16.5-19-30.7-24.1-40.6c-2.5-5-4.4-8.9-5.6-11.5     c-0.6-1.3-1-2.3-1.4-3c-0.3-0.7-0.4-1-0.4-1.1c0,0,0.2,0.3,0.6,1c0.4,0.7,0.9,1.7,1.5,3c1.3,2.6,3.2,6.5,5.8,11.4     c5.2,9.8,13.1,23.9,24.4,40.3c11.3,16.4,26,35.1,44.5,53.7c9.2,9.4,19.6,18.5,30.4,27.9c10.8,9.4,21.9,19.4,31.3,31.5     c4.7,6,8.8,12.5,11.8,19.3c3.1,6.8,5.4,13.8,7,20.8c3.2,14.1,3.6,28.1,2.9,41.3c-0.7,13.2-2.5,25.6-4.6,37.2     c-2.1,11.5-4.1,22.2-5.9,32c-3.6,19.6-5.2,35.7-5.2,46.8c-0.1,5.6,0.1,9.9,0.3,12.8c0.1,1.4,0.2,2.5,0.2,3.3     C2951.5,761,2951.5,761.4,2951.5,761.4z"></path>
		</g>
	</g>
	<g>
		<g>
			<g>
				<g>
					<g>
						<g>
							<g>
								<g>
									<g>
										<g>
											<g>
												<g>
													<g>
														<path class="st25" d="M2207.8,816c-13-13.3-28.2-27.6-28.2-27.6l-12.8-13.4c-0.6,1.1-1,2.3-1.4,3.5                c-0.7,2.2-1.5,4.6-3.2,6.2c-3.3,3-8.6,2.1-12.5-0.1c-8.2-4.5-13.7-13.7-13.7-23c-0.1-9,4.9-17.7,12.5-22.4                c0.6-2.3,1.7-4.6,3.4-6.8c10.7-13.8,35.9-12,35.9-12l-3.8-5.3c0,0-17.3-10.6-45.8,7.5c-4.3,2.7-9.4,4-14.4,3.2                c-3.1-0.5-6-1.8-7.7-4.6c-4.2-7-0.3-11.8,17.3-23.3c17.6-11.5,38.5-16.8,51.8-12c13.3,4.9,18.2,7.6,18.2,7.6                s-31.6-50-33.5-53.3c-5.4-9.4-5.7-19.7,0.2-23.8c3.8-2.7,10.6-3.3,17.2,7.5c5.8,9.3,76.8,97.1,76.8,97.1l29.2,40.7                l18.6,37.5l-63,34.7l-5.3-0.5C2230,831.8,2217.3,825.7,2207.8,816z"></path>
													</g>
												</g>
											</g>
										</g>
									</g>
								</g>
							</g>
						</g>
					</g>
				</g>
			</g>
			<g>
				<g>
					<g>
						<g>
							<g>
								<g>
									<g>
										<g>
											<g>
												<g>
													<g>
														<g>
															<path class="st25" d="M2282.8,763c-4.4,4.7-12.2,4.1-18,1.2c-5.8-2.9-10.3-7.7-15.9-11c-16.5-10-39-5.8-55-16.5                 c-2.2-1.5-4.5-4-3.5-6.5c0.9-2.3,3.9-2.8,6.4-2.9c21.3-0.9,42.5-1.8,63.8-2.7"></path>
														</g>
													</g>
												</g>
											</g>
										</g>
									</g>
								</g>
							</g>
						</g>
					</g>
				</g>
				<g>
					<g>
						<g>
							<g>
								<g>
									<g>
										<g>
											<g>
												<g>
													<g>
														<g>
															<g>
																<path class="st26" d="M2260.7,724.5c0-0.2-2.5-0.4-6.9-0.4c-4.5,0-10.9,0.1-18.8,0.2c-8.3,0.2-17.7,0.5-27.9,0.8                  c-2.6,0.1-5.3,0.2-8.1,0.3c-2.5,0.3-6-0.5-9.2,2.6c-1.5,1.6-1.6,4.3-0.6,6c0.9,1.7,2.1,2.9,3.5,3.9                  c2.7,1.7,5.4,3.2,8.4,4.4c11.9,4.5,23.7,4.7,33.7,7.2c5,1.2,9.6,2.8,13.5,5c3.9,2.3,7.2,5.1,10.5,7.4                  c6.5,5,13.9,6.4,18.4,5.1c4.6-1.2,6-3.9,5.8-3.9c-0.2-0.3-1.9,1.8-6.1,2.5c-4.2,0.7-10.5-0.8-16.6-5.8                  c-3.1-2.3-6.3-5.3-10.5-7.9c-4.1-2.6-9.1-4.4-14.3-5.7c-10.4-2.7-22.2-3.1-33.1-7.3c-2.7-1-5.3-2.4-7.6-3.9                  c-2.2-1.5-3.4-3.7-2.3-4.6c1-1.2,3.9-1.3,6.7-1.4c2.7-0.1,5.4-0.3,8.1-0.4c10.2-0.6,19.6-1.1,27.9-1.6                  c7.9-0.5,14.3-1,18.8-1.4C2258.2,725.1,2260.7,724.8,2260.7,724.5z"></path>
															</g>
														</g>
													</g>
												</g>
											</g>
										</g>
									</g>
								</g>
							</g>
						</g>
					</g>
				</g>
			</g>
			<g>
				<g>
					<g>
						<g>
							<g>
								<g>
									<g>
										<g>
											<g>
												<g>
													<g>
														<g>
															<path class="st26" d="M2188.6,720.1c-0.3,0.3-2.4-4.5-9.3-7.7c-3.4-1.5-7.9-2.1-12.7-1c-4.8,1-9.8,3.4-14.8,6.3                 c-5.1,2.9-10,5.8-15,7.4c-5,1.6-9.9,2.1-13.9,1.2c-4.1-0.9-6.6-3.7-7.5-5.7c-0.9-2.1-0.9-3.3-0.8-3.3                 c0.2-0.1,0.5,1.1,1.6,2.9c1.1,1.8,3.3,3.9,7,4.5c3.6,0.6,8.2,0,12.8-1.6c4.7-1.6,9.4-4.5,14.5-7.4                 c5.1-3,10.4-5.5,15.6-6.4c5.2-1.1,10.3-0.3,13.8,1.6c3.6,1.8,5.9,4.3,7.1,6.1C2188.4,718.9,2188.7,720,2188.6,720.1z                 "></path>
														</g>
													</g>
												</g>
											</g>
										</g>
									</g>
								</g>
							</g>
						</g>
					</g>
				</g>
			</g>
			<g>
				<g>
					<g>
						<g>
							<g>
								<g>
									<g>
										<g>
											<g>
												<g>
													<g>
														<g>
															<path class="st26" d="M2167.8,636.3c0.3-0.2,2.6,3.7,6.4,9.9c4.2,6.9,9.2,15.1,14.7,24.2c5.6,9,10.8,17.2,15,24                 c3.9,6.1,6.3,9.9,6,10.1c-0.3,0.2-3.1-3.3-7.4-9.2c-4.3-5.9-9.8-14.3-15.7-23.7c-5.8-9.4-10.8-18.2-14.1-24.6                 C2169.3,640.6,2167.5,636.4,2167.8,636.3z"></path>
														</g>
													</g>
												</g>
											</g>
										</g>
									</g>
								</g>
							</g>
						</g>
					</g>
				</g>
			</g>
			<g>
				<g>
					<g>
						<g>
							<g>
								<g>
									<g>
										<g>
											<g>
												<g>
													<g>
														<g>
															<path class="st26" d="M2184.2,738.4c0,0.2-1.3,0.3-3.6,0.7c-2.2,0.4-5.9,1.1-8,4.4c-1,1.6-1,3.7,0,5.8                 c0.9,2.1,2.7,4,4.5,6.2c1.8,2.1,3.8,5,3.7,8.6c-0.2,3.5-2.2,6.7-5.2,8.7c-3.1,2-6.8,2.2-10,1.4                 c-3.2-0.8-6-2.4-8.1-4.7c-3.8-4.5-6.1-9-7.8-13c-1.7-4-2.5-7.4-2.6-9.8c-0.1-2.4,0.4-3.7,0.5-3.7                 c0.2,0,0,1.3,0.4,3.6c0.4,2.3,1.4,5.5,3.2,9.3c1.8,3.7,4.3,8.2,7.9,12.2c3.4,3.6,10.2,5.9,15.2,2.8                 c2.4-1.5,4.1-4.2,4.2-6.8c0.1-2.6-1.4-5-3.1-7.2c-1.7-2.2-3.5-4.3-4.6-6.8c-1.2-2.4-1-5.5,0.4-7.4                 c2.9-3.9,7-4.2,9.3-4.4C2182.9,738,2184.2,738.2,2184.2,738.4z"></path>
														</g>
													</g>
												</g>
											</g>
										</g>
									</g>
								</g>
							</g>
						</g>
					</g>
				</g>
			</g>
			<g>
				<g>
					<g>
						<g>
							<g>
								<g>
									<g>
										<g>
											<g>
												<g>
													<g>
														<g>
															<path class="st26" d="M2165.5,772c0.1-0.1,1,0.8,1.5,3c0.4,2.1,0.2,5.7-2.7,8.7c-2.8,3-7.9,4.7-13.2,3.3                 c-5.2-1.3-10-5.2-13.1-10.2c-3.2-5.1-4.4-10.9-4-16c0.4-5.2,2.3-9.5,4.5-12.7c2.2-3.2,4.6-5.2,6.4-6.4                 c1.8-1.2,2.9-1.6,3-1.4c0.3,0.4-4.1,2.5-8,8.7c-1.9,3.1-3.5,7.2-3.8,11.9c-0.3,4.7,1,10,3.9,14.7                 c2.9,4.6,7.2,8.2,11.7,9.4c4.5,1.3,9,0,11.4-2.4c2.5-2.4,3.1-5.5,2.9-7.4C2165.9,773.1,2165.3,772.1,2165.5,772z"></path>
														</g>
													</g>
												</g>
											</g>
										</g>
									</g>
								</g>
							</g>
						</g>
					</g>
				</g>
			</g>
			<g>
				<g>
					<g>
						<g>
							<g>
								<g>
									<g>
										<g>
											<g>
												<g>
													<g>
														<g>
															<path class="st26" d="M2221.1,784.4c-0.1-0.2,1.5-1.6,4.9-2.9c3.3-1.2,8.7-2,14.4-0.1l-1.4,1.5                 c-1.1-2.2-2.1-4.7-3-7.4c-5.1-14.7-3.2-27.5-2.6-27.3c0.7,0-0.1,12.4,4.9,26.6c0.9,2.6,1.9,5,2.9,7.2l1.1,2.4                 l-2.5-0.9c-5.1-1.9-10-1.5-13.3-0.7C2223,783.7,2221.2,784.7,2221.1,784.4z"></path>
														</g>
													</g>
												</g>
											</g>
										</g>
									</g>
								</g>
							</g>
						</g>
					</g>
				</g>
			</g>
			<g>
				<g>
					<g>
						<g>
							<g>
								<g>
									<g>
										<g>
											<g>
												<g>
													<g>
														<g>
															<path class="st26" d="M2167,699.4c0.6-0.1,0.9,4.7-2.3,9.3c-3.2,4.6-7.8,6-8,5.4c-0.3-0.6,3.3-2.7,6.1-6.7                 C2165.6,703.4,2166.3,699.4,2167,699.4z"></path>
														</g>
													</g>
												</g>
											</g>
										</g>
									</g>
								</g>
							</g>
						</g>
					</g>
				</g>
			</g>
		</g>
		<g>
			<g>
				<g>
					<path class="st14" d="M2631.9,987.6c0,0-183.1,89-227.5,85.7c-43.3-3.2-122.9-138.4-143-176c-16.9-31.7-29.3-59.1-29.3-59.1       l71.5-58.3l11.7,10.5l113.2,134.4c13.1,0,127.4-74.2,127.4-74.2s65.3-59,90.2-62.8c24.8-3.7,9.8,52.3,9.8,52.3L2631.9,987.6z"></path>
				</g>
			</g>
		</g>
	</g>
	<g>
		<g>
			<g>
				<path class="st14" d="M3024.5,813.2l-107.9-51.5l2.8-1.8l-23.8-40.2l-102.1,75.5l-50-60.6l-23.5,30.8l0,0l-73.8,22.5l-17.5,66.4      l-24.9,59.1c-23.4,55.6-21.4,117-4,174.8c0.1,0.4,0,0,0.1,0.4c16.6,54.6,42,63.9,32.8,123.6c-2.1,13.6-12,100-12,100h398.7      l-41.8-126.1L3024.5,813.2z"></path>
			</g>
		</g>
		<g>
			<g>
				<path class="st24" d="M2617.4,863.7c0.1,0,0.2,0.7,0.4,1.9c0.2,1.4,0.4,3.3,0.8,5.5c0.6,5,1.5,12,2.6,20.6l0,0.1l0,0.1      c-5.5,17.7-13,43.3-18.4,72.3c-2.6,14-4.5,27.4-5.5,39.6c-1.2,12.2-1.2,23.3-1,32.6c0.3,9.3,1.1,16.8,1.8,21.9      c0.4,2.5,0.7,4.4,0.9,5.9c0.2,1.4,0.3,2.1,0.2,2.1c-0.1,0-0.2-0.7-0.5-2c-0.3-1.5-0.7-3.5-1.2-5.9c-0.9-5.1-1.8-12.7-2.3-22      c-0.3-9.3-0.4-20.5,0.7-32.8c1-12.3,2.8-25.8,5.4-39.8c5.4-29.1,13.1-54.6,18.9-72.3l0,0.2c-0.9-8.6-1.6-15.6-2.1-20.6      c-0.2-2.3-0.4-4.2-0.5-5.6C2617.3,864.3,2617.3,863.7,2617.4,863.7z"></path>
			</g>
		</g>
		<g>
			<g>
				<path class="st24" d="M2769.3,1309.1c0,0-0.1-0.4-0.2-1.2c-0.1-0.9-0.3-2.1-0.5-3.6c-0.4-3.2-0.9-7.9-1.6-13.8      c-0.3-3-0.7-6.3-1.1-10c-0.3-3.7-0.6-7.6-1-11.9c-0.3-4.3-0.7-8.8-1.1-13.7c-0.4-4.8-0.6-10-0.9-15.4c-0.3-5.4-0.6-11-0.9-16.9      c-0.1-5.9-0.3-12-0.5-18.4c-0.5-12.7-0.2-26.3-0.3-40.5c0.3-28.5,1.4-59.9,3.4-92.8c4.1-65.8,10.2-125.1,14.5-168.1      c2.2-21.4,4-38.8,5.3-50.8c0.6-5.9,1.2-10.6,1.5-13.8c0.2-1.5,0.3-2.7,0.4-3.6c0.1-0.8,0.2-1.2,0.2-1.2c0,0,0,0.4,0,1.2      c-0.1,0.9-0.2,2.1-0.3,3.6c-0.3,3.2-0.7,7.9-1.2,13.8c-1.1,12.1-2.8,29.5-4.8,50.9c-4.1,43-10,102.3-14.1,168.1      c-1.9,32.9-3.1,64.2-3.5,92.7c0.1,14.3-0.2,27.8,0.2,40.5c0.1,6.3,0.3,12.5,0.4,18.4c0.3,5.9,0.5,11.5,0.8,16.9      c0.3,5.4,0.4,10.5,0.8,15.4c0.4,4.8,0.7,9.4,1,13.7c0.3,4.3,0.6,8.2,0.8,11.9c0.4,3.6,0.7,7,1,10c0.6,5.9,1,10.6,1.4,13.8      c0.1,1.5,0.2,2.7,0.3,3.6C2769.3,1308.7,2769.3,1309.1,2769.3,1309.1z"></path>
			</g>
		</g>
		<g>
			<g>
				<path class="st24" d="M2791.7,798.2c0.1,0.1-0.9,1.1-2.6,3.2c-1.7,2-3.9,5.2-6.6,9.2c-5.3,8.1-12.3,19.8-19.6,33.6l-0.6,1.1      l-0.7-1.1c-2.9-4.6-5.7-9.6-8.6-14.7c-9.5-17.4-17.2-33.5-23.3-44.9c-3-5.7-5.5-10.3-7.3-13.5c-0.8-1.5-1.5-2.7-2-3.6      c-0.5-0.8-0.7-1.3-0.6-1.3c0,0,0.3,0.4,0.9,1.2c0.6,0.9,1.4,2.1,2.3,3.5c1.9,3.1,4.6,7.6,7.7,13.3c6.3,11.3,14.3,27.4,23.7,44.7      c2.8,5.2,5.7,10.1,8.5,14.7l-1.3,0c7.4-13.8,14.5-25.5,20.1-33.5c2.8-4,5.2-7.1,7-9c0.9-1,1.7-1.7,2.2-2.2      C2791.4,798.4,2791.7,798.2,2791.7,798.2z"></path>
			</g>
		</g>
		<g>
			<g>
				<path class="st24" d="M2919.3,759.9c0,0-0.4,0.5-1.3,1.4c-1,1-2.3,2.3-4,3.9c-3.5,3.3-8.6,8.1-15,13.9      c-12.8,11.6-30.8,27.2-51.2,44c-6.1,5-12.1,9.9-17.9,14.4c-5.8,4.5-11.3,8.8-16.8,12.4l-0.7,0.4l-0.3-0.7      c-2.9-7.3-4.2-14.3-5.7-20.4c-1.4-6.1-2.7-11.4-4.2-15.7c-1.4-4.3-2.9-7.5-4-9.7c-1.2-2.1-1.9-3.2-1.8-3.3c0,0,0.2,0.2,0.6,0.7      c0.4,0.5,1,1.2,1.6,2.3c1.3,2.1,2.9,5.3,4.4,9.6c1.5,4.3,3,9.6,4.5,15.7c1.6,6.1,2.9,13.1,5.8,20.1l-1-0.3      c5.3-3.5,10.8-7.9,16.6-12.4c5.8-4.5,11.7-9.4,17.9-14.4c20.3-16.7,38.4-32.3,51.4-43.6c6.4-5.6,11.6-10.2,15.3-13.5      c1.7-1.5,3.1-2.7,4.2-3.7C2918.8,760.3,2919.3,759.8,2919.3,759.9z"></path>
			</g>
		</g>
		<g>
			<g>
				<path class="st24" d="M3019.6,819.5c0.1,0.1-1.3,1.1-3.8,2.8c-1.3,0.9-2.8,1.9-4.5,3.3c-1.7,1.4-3.7,2.8-5.7,4.7      c-2.1,1.8-4.3,3.8-6.5,6.1c-2.3,2.2-4.5,4.9-6.9,7.6c-4.6,5.6-9.1,12.1-13.2,19.4c-3.9,7.3-6.9,14.7-9.2,21.6      c-1,3.5-2,6.7-2.6,9.9c-0.8,3.1-1.2,6.1-1.6,8.8c-0.5,2.7-0.6,5.2-0.8,7.3c-0.3,2.2-0.3,4-0.3,5.6c-0.1,3.1-0.2,4.8-0.3,4.8      c-0.1,0-0.2-1.7-0.3-4.8c-0.1-1.5-0.1-3.4,0.1-5.6c0.1-2.2,0.2-4.7,0.6-7.4c0.3-2.7,0.7-5.7,1.5-8.9c0.6-3.2,1.6-6.5,2.5-10.1      c2.2-7,5.2-14.5,9.2-21.9c4.1-7.4,8.8-13.9,13.4-19.6c2.4-2.7,4.7-5.4,7.1-7.6c2.3-2.3,4.6-4.3,6.7-6c2.1-1.8,4.1-3.2,5.9-4.5      c1.7-1.3,3.3-2.3,4.7-3.1C3018.1,820.2,3019.6,819.4,3019.6,819.5z"></path>
			</g>
		</g>
	</g>
	<g>
		<g>
			<g>
				<path class="st14" d="M3123,1052c0,0-23.6-102.9-32.5-142.1c-16.8-74-66.1-96.7-66.1-96.7l-59.3,161.1l36.7,168.3l-162.8-23.4      l-27.6-6.9l-19.9,94.5l51.6,21c0,0,183.9,69.2,238.1,62.7c54.3-6.6,65.2-67.8,65.4-93.1C3147.2,1154,3123,1052,3123,1052z"></path>
			</g>
			<g>
				<g>
					<g>
						<g>
							<path class="st27" d="M2704.5,1067.2L2636,928.7c-4.7-9.4-14.3-15.4-24.9-15.4H2439c-6.4,0-10.5,6.8-7.5,12.3l116.5,215.7         c3.3,6,9.6,9.8,16.5,9.8h178.5L2704.5,1067.2z"></path>
						</g>
					</g>
				</g>
			</g>
			<g>
				<g>
					<path class="st24" d="M2691.6,1064.6c0,0-0.2-0.2-0.5-0.8c-0.3-0.6-0.7-1.3-1.2-2.3c-1.1-2.1-2.6-5.1-4.6-8.9       c-3.9-7.9-9.6-19.1-16.5-32.9c-6.9-13.9-15.2-30.5-24.3-48.8c-4.6-9.2-9.3-18.9-14.3-28.9c-1.2-2.5-2.5-5.1-3.8-7.5       c-1.3-2.4-3.1-4.6-5.2-6.5c-4.2-3.7-9.8-5.9-15.5-6.1c-47.3-0.1-90.2-0.2-121.3-0.2c-15.4-0.1-28-0.2-36.8-0.2       c-4.3-0.1-7.6-0.1-10-0.1c-1.1,0-1.9-0.1-2.6-0.1c-0.6,0-0.9-0.1-0.9-0.1c0,0,0.3-0.1,0.9-0.1c0.7,0,1.5,0,2.6-0.1       c2.4,0,5.7-0.1,10-0.1c8.8-0.1,21.3-0.1,36.8-0.2c31.2-0.1,74-0.1,121.4-0.2c6.1,0.1,12.1,2.5,16.5,6.4c2.2,2,4.1,4.3,5.5,6.9       c1.4,2.6,2.5,5.1,3.8,7.6c4.9,10,9.7,19.7,14.2,28.9c9,18.4,17.2,35,24,49c6.8,13.9,12.2,25.2,16.1,33.1c1.8,3.8,3.3,6.9,4.3,9       c0.4,1,0.8,1.8,1.1,2.4C2691.5,1064.3,2691.6,1064.6,2691.6,1064.6z"></path>
				</g>
			</g>
			<g>
				<g>
					<g>
						<g>
							<path class="st19" d="M2540.2,960.2c-2.2,4.5-0.1,8.5,3.4,11c3.5,2.5,7.8,2,10.1-0.8c1.5-1.8,2.2-4.8,1.1-7.5         c-1.1-2.8-6.1-7.2-9.7-6.2C2545.1,956.7,2541.2,958,2540.2,960.2z"></path>
						</g>
					</g>
				</g>
			</g>
			<g>
				<path class="st25" d="M2797.9,1108.4c0,0-17.4-25.1-24.6-33c-7.1-7.9-49.9-35.4-49.9-35.4s-20.6-27.7-23.8-27.7      c-3.2,0-13.2,1.8-10.5,14.7c2.6,12.4,7.3,29.1,11.3,37.2l-97.2-3.2c-5.8,0.1-14.1,1.6-16.3,7.1c-2.8,6.8,3.9,11.5,8.2,13.6      c5.9,2.9,23.2,7.7,35.4,10.9c-0.2,0.3-8,15.4,2.8,23.1c10.9,7.8,11.7,9.3,11.7,9.3s0.5,15.6,5.3,21.8      c4.8,6.3,56.2,32.6,56.2,32.6s32.9,9.6,49.5,8.9c16.6-0.8,33.8,8.6,35.6,9.1c1.9,0.5,18.1-76.7,18.1-76.7L2797.9,1108.4z"></path>
			</g>
			<g>
				<g>
					<g>
						<g>
							<g>
								<path class="st26" d="M2691.6,1064.6c0,0.9,11.5,1.4,25.7,2.9c14.1,1.5,25.8,2.2,25.9,1.3c0.1-0.8-11.3-2.9-25.6-4.5          C2703.3,1062.7,2691.6,1063.7,2691.6,1064.6z"></path>
							</g>
						</g>
					</g>
				</g>
			</g>
			<g>
				<g>
					<g>
						<g>
							<g>
								<path class="st26" d="M2703.8,1104.8c0.3-1-16.4-5.5-37.3-7.9c-10.4-1.3-19.9-2.2-26.7-3c-6.8-0.7-11-1.3-11.1-0.8          c-0.1,0.4,4,1.8,10.8,3.1c6.8,1.3,16.3,2.6,26.7,3.9C2687,1102.5,2703.6,1105.5,2703.8,1104.8z"></path>
							</g>
						</g>
					</g>
				</g>
			</g>
			<g>
				<g>
					<g>
						<g>
							<g>
								<path class="st26" d="M2703.8,1134.4c0-0.9-13.3-1.3-29.4-4.1c-16.1-2.7-28.8-6.7-29.1-5.8c-0.3,0.8,12.1,6.2,28.6,9          C2690.3,1136.3,2703.9,1135.3,2703.8,1134.4z"></path>
							</g>
						</g>
					</g>
				</g>
			</g>
			<g>
				<g>
					<g>
						<g>
							<g>
								<path class="st26" d="M2698.3,1167.7c0.9,0.1,2.2-3.4,3-8c0.8-4.5,0.7-8.3-0.2-8.5c-0.9-0.1-2.2,3.4-3,8          C2697.3,1163.7,2697.4,1167.5,2698.3,1167.7z"></path>
							</g>
						</g>
					</g>
				</g>
			</g>
			<g>
				<g>
					<g>
						<g>
							<g>
								<path class="st26" d="M2706.5,1127.9c0.9-0.1,1.4-3,3-6.1c1.5-3.1,3.5-5.3,3-6.1c-0.4-0.8-4,0.7-5.9,4.7          C2704.6,1124.4,2705.6,1128,2706.5,1127.9z"></path>
							</g>
						</g>
					</g>
				</g>
			</g>
			<g>
				<g>
					<g>
						<g>
							<g>
								<path class="st26" d="M2716.9,1088.1c0.9,0.1,1.8-1.8,2.9-4c1.1-2.2,2-4,1.4-4.7c-0.6-0.7-2.9,0.5-4.3,3.3          C2715.6,1085.4,2716,1088,2716.9,1088.1z"></path>
							</g>
						</g>
					</g>
				</g>
			</g>
		</g>
		<g>
			<g>
				<path class="st24" d="M3001.9,1277.3c0,0-0.4,0-1-0.2c-0.7-0.2-1.8-0.4-3.1-0.7c-2.7-0.6-6.7-1.5-11.8-3      c-10.3-2.7-25.2-7.3-43.9-13.3c-37.3-12.1-89.7-30.4-150.6-52.9l-0.6-0.2l0.1-0.6c6.1-29.3,12.8-61.2,19.8-94.5l0.2-0.8l0.8,0.2      c5.5,1.4,11.4,2.9,17.4,4.4c3.4,0.9,6.8,1.7,10.2,2.6l-0.1,0c59.6,8.1,115.1,15.7,162.3,22.1l-0.7,0.8      c-10.2-47.6-18.7-87.2-24.6-115c-2.9-13.8-5.2-24.7-6.8-32.2c-0.8-3.7-1.3-6.5-1.7-8.5c-0.4-1.9-0.5-2.9-0.5-2.9s0.3,1,0.7,2.9      c0.4,2,1.1,4.8,1.9,8.4c1.7,7.5,4.1,18.3,7.1,32.1c6.1,27.7,14.7,67.3,25.2,114.9l0.2,0.9l-0.9-0.1      c-47.1-6.3-102.7-13.8-162.3-21.9l0,0l0,0c-3.4-0.8-6.8-1.7-10.2-2.6c-5.9-1.5-11.9-3-17.4-4.4l0.9-0.6      c-7,33.3-13.7,65.2-19.9,94.5l-0.4-0.8c60.9,22.5,113.2,41,150.4,53.4c18.6,6.2,33.5,10.8,43.7,13.7c5.1,1.5,9.1,2.5,11.8,3.2      c1.3,0.3,2.3,0.6,3,0.8C3001.5,1277.2,3001.9,1277.3,3001.9,1277.3z"></path>
			</g>
		</g>
		<g>
			<g>
				<path class="st24" d="M3045.9,1173.4c-0.2,0.1-1.8-2.7-4.9-6.7c-3.1-4.1-7.9-9.3-14.2-13.8c-6.3-4.6-12.7-7.5-17.6-9.2      c-4.8-1.7-7.9-2.3-7.9-2.6c0-0.1,0.8,0,2.3,0.2c1.4,0.2,3.5,0.7,6,1.4c5,1.5,11.7,4.3,18.1,9c6.4,4.7,11.3,10.2,14.2,14.4      c1.5,2.1,2.5,3.9,3.2,5.3C3045.7,1172.7,3046,1173.4,3045.9,1173.4z"></path>
			</g>
		</g>
	</g>
</g>
</svg>
